<svg focusable="false" aria-hidden="true" role="presentation" height="48" width="5760" xmlns="http://www.w3.org/2000/svg" class="jsx-389196942 wave-1"><path d="M5760 20.965l-39.97-4.1c-39.96-4.224-121.36-12.24-198.36-11.839-81.77.524-161.34 9.773-242.01 11.838-79.56 1.943-161.33-2.99-238.33-4.624-81.4-1.449-161.34.401-242 .493-79.2-.092-157.67-1.942-238.34-4.624-81.03-2.559-161.33-5.642-242-3.576-78.83 1.942-157.67 9.341-238.33 10.266-80.67.925-161.34-4.008-242-7.183-78.84-2.99-157.67-4.224-238.34-5.149-80.3-.924-161.33-2.158-242-1.017-78.47 1.017-157.67 4.1-238.34 5.118-79.93 1.14-161.33-.093-238.33 1.541-81.77 1.45-161.33 5.765-242 7.214-79.57 1.634-161.34.4-238.34 1.541-81.4 1.018-161.33 4.1-242 1.018-79.2-3.083-157.67-12.332-238.33-15.415-81.04-3.082-161.34 0-242 4.625-78.84 4.624-157.67 10.79-238.34 10.266-80.67-.401-161.33-7.8-242-12.332C1119.81.31 1040.97-1.54 960.306 1.45c-80.301 3.175-161.335 11.191-242.002 13.873-78.467 2.559-157.667-.524-238.334-2.066-79.934-1.54-161.335-1.54-238.335-1.54H0V48H5760V20.965z" class="jsx-389196942"></path></svg>